<svg width="26" height="24" viewBox="0 0 26 24" fill="none" xmlns="http://www.w3.org/2000/svg">
<path fill-rule="evenodd" clip-rule="evenodd" d="M24.375 3C24.375 2.60218 24.2038 2.22064 23.899 1.93934C23.5943 1.65804 23.181 1.5 22.75 1.5H3.25C2.81902 1.5 2.4057 1.65804 2.10095 1.93934C1.7962 2.22064 1.625 2.60218 1.625 3V21C1.625 21.3978 1.7962 21.7794 2.10095 22.0607C2.4057 22.342 2.81902 22.5 3.25 22.5H22.75C23.181 22.5 23.5943 22.342 23.899 22.0607C24.2038 21.7794 24.375 21.3978 24.375 21V3ZM0 3C0 2.20435 0.34241 1.44129 0.951903 0.87868C1.5614 0.316071 2.38805 0 3.25 0L22.75 0C23.612 0 24.4386 0.316071 25.0481 0.87868C25.6576 1.44129 26 2.20435 26 3V21C26 21.7956 25.6576 22.5587 25.0481 23.1213C24.4386 23.6839 23.612 24 22.75 24H3.25C2.38805 24 1.5614 23.6839 0.951903 23.1213C0.34241 22.5587 0 21.7956 0 21V3ZM13.8125 6.75C13.8125 6.55109 13.7269 6.36032 13.5745 6.21967C13.4222 6.07902 13.2155 6 13 6C12.7845 6 12.5778 6.07902 12.4255 6.21967C12.2731 6.36032 12.1875 6.55109 12.1875 6.75V15.4395L8.70025 12.219C8.54768 12.0782 8.34076 11.9991 8.125 11.9991C7.90924 11.9991 7.70232 12.0782 7.54975 12.219C7.39718 12.3598 7.31147 12.5508 7.31147 12.75C7.31147 12.9492 7.39718 13.1402 7.54975 13.281L12.4247 17.781C12.5002 17.8508 12.5899 17.9063 12.6886 17.9441C12.7873 17.9819 12.8931 18.0013 13 18.0013C13.1069 18.0013 13.2127 17.9819 13.3114 17.9441C13.4101 17.9063 13.4998 17.8508 13.5753 17.781L18.4503 13.281C18.6028 13.1402 18.6885 12.9492 18.6885 12.75C18.6885 12.5508 18.6028 12.3598 18.4503 12.219C18.2977 12.0782 18.0908 11.9991 17.875 11.9991C17.6592 11.9991 17.4523 12.0782 17.2997 12.219L13.8125 15.4395V6.75Z" fill="black"/>
</svg>
