<svg width="41" height="31" viewBox="0 0 41 31" fill="none" xmlns="http://www.w3.org/2000/svg">
<path d="M41 16.9091C41 17.6565 40.6677 18.3733 40.0763 18.9018C39.4848 19.4304 38.6826 19.7273 37.8462 19.7273H3.15385C2.31739 19.7273 1.5152 19.4304 0.92374 18.9018C0.332279 18.3733 0 17.6565 0 16.9091C0 16.1617 0.332279 15.4448 0.92374 14.9163C1.5152 14.3878 2.31739 14.0909 3.15385 14.0909H37.8462C38.6826 14.0909 39.4848 14.3878 40.0763 14.9163C40.6677 15.4448 41 16.1617 41 16.9091ZM7.88462 22.5455H3.15385C3.15385 24.7877 4.15068 26.9382 5.92507 28.5237C7.69945 30.1093 10.106 31 12.6154 31H28.3846C30.894 31 33.3006 30.1093 35.0749 28.5237C36.8493 26.9382 37.8462 24.7877 37.8462 22.5455H7.88462ZM6.30769 11.2727H3.15385V5.63636C3.15385 4.14151 3.8184 2.70788 5.00133 1.65085C6.18425 0.593829 7.78863 0 9.46154 0H31.5385C33.2114 0 34.8158 0.593829 35.9987 1.65085C37.1816 2.70788 37.8462 4.14151 37.8462 5.63636V11.2727H6.30769ZM31.5385 7.04545C31.5385 7.41917 31.7046 7.77758 32.0003 8.04183C32.2961 8.30609 32.6972 8.45455 33.1154 8.45455C33.5336 8.45455 33.9347 8.30609 34.2304 8.04183C34.5262 7.77758 34.6923 7.41917 34.6923 7.04545C34.6923 6.67174 34.5262 6.31333 34.2304 6.04908C33.9347 5.78482 33.5336 5.63636 33.1154 5.63636C32.6972 5.63636 32.2961 5.78482 32.0003 6.04908C31.7046 6.31333 31.5385 6.67174 31.5385 7.04545ZM25.2308 4.22727C25.2308 4.60099 25.3969 4.95939 25.6926 5.22365C25.9884 5.48791 26.3895 5.63636 26.8077 5.63636C27.2259 5.63636 27.627 5.48791 27.9227 5.22365C28.2185 4.95939 28.3846 4.60099 28.3846 4.22727C28.3846 3.85356 28.2185 3.49515 27.9227 3.2309C27.627 2.96664 27.2259 2.81818 26.8077 2.81818C26.3895 2.81818 25.9884 2.96664 25.6926 3.2309C25.3969 3.49515 25.2308 3.85356 25.2308 4.22727ZM18.9231 7.04545C18.9231 7.41917 19.0892 7.77758 19.3849 8.04183C19.6807 8.30609 20.0818 8.45455 20.5 8.45455C20.9182 8.45455 21.3193 8.30609 21.6151 8.04183C21.9108 7.77758 22.0769 7.41917 22.0769 7.04545C22.0769 6.67174 21.9108 6.31333 21.6151 6.04908C21.3193 5.78482 20.9182 5.63636 20.5 5.63636C20.0818 5.63636 19.6807 5.78482 19.3849 6.04908C19.0892 6.31333 18.9231 6.67174 18.9231 7.04545ZM12.6154 4.22727C12.6154 4.60099 12.7815 4.95939 13.0773 5.22365C13.373 5.48791 13.7741 5.63636 14.1923 5.63636C14.6105 5.63636 15.0116 5.48791 15.3074 5.22365C15.6031 4.95939 15.7692 4.60099 15.7692 4.22727C15.7692 3.85356 15.6031 3.49515 15.3074 3.2309C15.0116 2.96664 14.6105 2.81818 14.1923 2.81818C13.7741 2.81818 13.373 2.96664 13.0773 3.2309C12.7815 3.49515 12.6154 3.85356 12.6154 4.22727ZM6.30769 7.04545C6.30769 7.41917 6.47383 7.77758 6.76956 8.04183C7.06529 8.30609 7.46639 8.45455 7.88462 8.45455C8.30284 8.45455 8.70394 8.30609 8.99967 8.04183C9.2954 7.77758 9.46154 7.41917 9.46154 7.04545C9.46154 6.67174 9.2954 6.31333 8.99967 6.04908C8.70394 5.78482 8.30284 5.63636 7.88462 5.63636C7.46639 5.63636 7.06529 5.78482 6.76956 6.04908C6.47383 6.31333 6.30769 6.67174 6.30769 7.04545Z" fill="black"/>
</svg>
