<svg width="47" height="47" viewBox="0 0 47 47" fill="none" xmlns="http://www.w3.org/2000/svg">
<path d="M30.785 4.3475C31.0635 4.08806 31.4317 3.94682 31.8122 3.95354C32.1927 3.96025 32.5558 4.11439 32.8249 4.3835C33.094 4.6526 33.2481 5.01564 33.2548 5.39615C33.2615 5.77665 33.1203 6.14491 32.8609 6.42334L30.4717 8.8125H34.7604C35.3812 8.8125 35.9354 9.20417 36.143 9.78775L38.5909 16.6419C38.67 16.8635 38.6947 17.1008 38.6629 17.3339C38.6311 17.567 38.5437 17.7891 38.4082 17.9814C38.2727 18.1737 38.093 18.3307 37.8842 18.439C37.6754 18.5474 37.4436 18.604 37.2084 18.6042H35.1639L32.054 38.2854C31.6428 41.1544 29.1968 43.0833 26.2378 43.0833H20.7623C17.8052 43.0833 15.3573 41.1544 14.95 38.305L11.8362 18.6042H9.7917C9.55645 18.604 9.32466 18.5474 9.11586 18.439C8.90705 18.3307 8.72733 18.1737 8.59183 17.9814C8.45633 17.7891 8.369 17.567 8.33721 17.3339C8.30541 17.1008 8.33007 16.8635 8.40912 16.6419L10.857 9.78775C10.9588 9.50248 11.1463 9.25564 11.3938 9.08105C11.6413 8.90646 11.9367 8.81266 12.2396 8.8125H26.3161L30.785 4.3475V4.3475ZM33.7264 11.75H13.2756L11.8754 15.6667H35.1247L33.7264 11.75Z" fill="black"/>
</svg>
