<svg width="26" height="24" viewBox="0 0 26 24" fill="none" xmlns="http://www.w3.org/2000/svg">
<path fill-rule="evenodd" clip-rule="evenodd" d="M1.625 21C1.625 21.3978 1.79621 21.7794 2.10095 22.0607C2.4057 22.342 2.81902 22.5 3.25 22.5L22.75 22.5C23.181 22.5 23.5943 22.342 23.899 22.0607C24.2038 21.7794 24.375 21.3978 24.375 21L24.375 3C24.375 2.60218 24.2038 2.22064 23.899 1.93934C23.5943 1.65804 23.181 1.5 22.75 1.5L3.25 1.5C2.81902 1.5 2.4057 1.65804 2.10095 1.93934C1.79621 2.22064 1.625 2.60218 1.625 3L1.625 21ZM26 21C26 21.7956 25.6576 22.5587 25.0481 23.1213C24.4386 23.6839 23.612 24 22.75 24L3.25 24C2.38805 24 1.5614 23.6839 0.951904 23.1213C0.34241 22.5587 0 21.7956 0 21L0 3C0 2.20435 0.34241 1.44129 0.951904 0.87868C1.5614 0.316071 2.38805 0 3.25 0L22.75 0C23.612 0 24.4386 0.316071 25.0481 0.87868C25.6576 1.44129 26 2.20435 26 3L26 21ZM12.1875 17.25C12.1875 17.4489 12.2731 17.6397 12.4255 17.7803C12.5778 17.921 12.7845 18 13 18C13.2155 18 13.4222 17.921 13.5745 17.7803C13.7269 17.6397 13.8125 17.4489 13.8125 17.25L13.8125 8.5605L17.2997 11.781C17.4523 11.9218 17.6592 12.0009 17.875 12.0009C18.0908 12.0009 18.2977 11.9218 18.4503 11.781C18.6028 11.6402 18.6885 11.4492 18.6885 11.25C18.6885 11.0508 18.6028 10.8598 18.4503 10.719L13.5753 6.219C13.4998 6.14916 13.4101 6.09374 13.3114 6.05593C13.2127 6.01812 13.1069 5.99866 13 5.99866C12.8931 5.99866 12.7873 6.01812 12.6886 6.05593C12.5899 6.09374 12.5002 6.14916 12.4247 6.219L7.54975 10.719C7.39718 10.8598 7.31147 11.0508 7.31147 11.25C7.31147 11.4492 7.39718 11.6402 7.54975 11.781C7.70232 11.9218 7.90924 12.0009 8.125 12.0009C8.34076 12.0009 8.54768 11.9218 8.70025 11.781L12.1875 8.5605L12.1875 17.25Z" fill="black"/>
</svg>
