<svg width="37" height="40" viewBox="0 0 37 40" fill="none" xmlns="http://www.w3.org/2000/svg">
<path fill-rule="evenodd" clip-rule="evenodd" d="M27.8299 0L26.2708 4.64L26.3597 3.63L18.518 6.541V2.648L9.49868 4.79V8.41L7.21806 1.807L0 7.044L3.14389 16.147C3.29207 16.207 3.42993 16.284 3.55234 16.375C4.62178 17.178 5.65127 17.907 6.64469 18.564L2.89006 7.685L5.84068 5.545L9.49868 16.131V20.292C10.3787 20.774 11.2355 21.192 12.0756 21.542V6.27L15.9411 5.353V22.72C16.9203 22.898 17.8867 22.979 18.8556 22.961L20.1518 8.151L23.489 6.911L22.1219 22.535C23.1617 22.285 24.217 21.923 25.2993 21.453L28.2989 12.766L31.9582 11.914L29.4328 19.226C30.6457 18.4529 31.8163 17.6405 32.9413 16.791L35.7089 8.777L33.4322 9.229L37 0H27.8299ZM33.5366 2L30.5177 9.808L26.9589 10.514L29.8219 2H33.5366V2Z" fill="black"/>
<path fill-rule="evenodd" clip-rule="evenodd" d="M35.6873 19.6953C34.4305 24.0604 35.145 21.5789 33.3265 27.8947C32.2658 31.5789 31.1695 35.3865 30.417 38L35.6873 19.6953ZM2.37326 16C1.36825 16 0.590004 16.684 0.714986 17.458L4.06375 38.248C4.14159 38.7315 4.44414 39.1762 4.91459 39.4988C5.38504 39.8214 5.99104 39.9996 6.6188 40H30.417C31.045 39.9999 31.6513 39.8218 32.1221 39.4991C32.5928 39.1765 32.8955 38.7316 32.9734 38.248L36.3234 17.453C36.3676 17.1846 36.3022 16.9122 36.1364 16.6741C35.9705 16.4361 35.7126 16.2444 35.399 16.1261C35.0854 16.0079 34.7319 15.9689 34.3883 16.0148C34.0446 16.0607 33.7282 16.1892 33.4836 16.382C21.9646 25.178 15.2387 25.142 3.55222 16.375C3.23616 16.1368 2.81382 16.0025 2.37326 16Z" fill="black"/>
</svg>
