<svg width="36" height="38" viewBox="0 0 36 38" fill="none" xmlns="http://www.w3.org/2000/svg">
<path fill-rule="evenodd" clip-rule="evenodd" d="M27.0777 0L25.5608 4.408L25.6473 3.4485L18.0175 6.21395V2.5156L9.24195 4.5505V7.9895L7.02298 1.71665L0 6.6918L3.05892 15.3396C3.20309 15.3966 3.33723 15.4698 3.45633 15.5562C4.49687 16.3191 5.49854 17.0116 6.46511 17.6358L2.81195 7.30075L5.68282 5.26775L9.24195 15.3244V19.2774C10.0982 19.7353 10.9319 20.1324 11.7493 20.4649V5.9565L15.5102 5.08535V21.584C16.463 21.7531 17.4033 21.83 18.346 21.8129L19.6072 7.74345L22.8542 6.56545L21.524 21.4082C22.5357 21.1707 23.5625 20.8268 24.6155 20.3803L27.5341 12.1277L31.0944 11.3183L28.6373 18.2647C29.8175 17.5302 30.9564 16.7585 32.051 15.9514L34.7438 8.33815L32.5286 8.76755L36 0H27.0777ZM32.6302 1.9L29.6929 9.3176L26.2303 9.9883L29.0159 1.9H32.6302V1.9Z" fill="black"/>
<path fill-rule="evenodd" clip-rule="evenodd" d="M32.5449 18.2106C27.5917 21.6591 23.0171 23.7225 18.0751 23.7168C13.1307 23.7111 8.51476 21.6325 3.48509 18.1802L6.43996 36.1H29.595L32.5449 18.2106ZM2.30917 15.2C1.33131 15.2 0.574104 15.8498 0.695708 16.5851L3.95396 36.3356C4.0297 36.7949 4.32407 37.2174 4.78181 37.5239C5.23955 37.8303 5.82917 37.9996 6.43996 38H29.595C30.206 37.9999 30.7959 37.8307 31.2539 37.5242C31.7119 37.2177 32.0065 36.795 32.0823 36.3356L35.3418 16.5804C35.3848 16.3253 35.3211 16.0665 35.1597 15.8404C34.9984 15.6143 34.7475 15.4322 34.4423 15.3198C34.1372 15.2075 33.7932 15.1705 33.4589 15.2141C33.1246 15.2577 32.8167 15.3797 32.5787 15.5629C21.371 23.9191 14.8269 23.8849 3.45626 15.5563C3.14874 15.3299 2.73782 15.2023 2.30917 15.2V15.2Z" fill="black"/>
</svg>
