<svg width="26" height="26" viewBox="0 0 26 26" fill="none" xmlns="http://www.w3.org/2000/svg">
<path d="M23.9942 10.4609H17.4942C17.3825 10.4609 17.2911 10.5523 17.2911 10.6641V11.8828C17.2911 11.9945 17.3825 12.0859 17.4942 12.0859H23.9942C24.1059 12.0859 24.1973 11.9945 24.1973 11.8828V10.6641C24.1973 10.5523 24.1059 10.4609 23.9942 10.4609ZM20.5919 13.9141H17.4942C17.3825 13.9141 17.2911 14.0055 17.2911 14.1172V15.3359C17.2911 15.4477 17.3825 15.5391 17.4942 15.5391H20.5919C20.7036 15.5391 20.795 15.4477 20.795 15.3359V14.1172C20.795 14.0055 20.7036 13.9141 20.5919 13.9141ZM12.119 8.18848H11.0196C10.8622 8.18848 10.7352 8.31543 10.7352 8.47285V14.7697C10.7352 14.8611 10.7784 14.9449 10.852 14.9982L14.6327 17.7557C14.7596 17.8471 14.9374 17.8217 15.0288 17.6947L15.6813 16.8035V16.801C15.7727 16.674 15.7448 16.4963 15.6178 16.4049L12.4009 14.0791V8.47285C12.4034 8.31543 12.2739 8.18848 12.119 8.18848Z" fill="black"/>
<path d="M20.4344 17.1107H18.9668C18.8246 17.1107 18.6901 17.1844 18.6139 17.3062C18.2914 17.8166 17.9156 18.2889 17.484 18.7205C16.7401 19.4644 15.8742 20.0484 14.9119 20.4547C13.9141 20.8762 12.8553 21.0894 11.7635 21.0894C10.6692 21.0894 9.61037 20.8762 8.61506 20.4547C7.65275 20.0484 6.78693 19.4644 6.04299 18.7205C5.29904 17.9766 4.71506 17.1107 4.30881 16.1484C3.88732 15.1531 3.67404 14.0943 3.67404 13C3.67404 11.9057 3.88732 10.8494 4.30881 9.85156C4.71506 8.88926 5.29904 8.02344 6.04299 7.27949C6.78693 6.53555 7.65275 5.95157 8.61506 5.54532C9.61037 5.12383 10.6717 4.91055 11.7635 4.91055C12.8578 4.91055 13.9166 5.12383 14.9119 5.54532C15.8742 5.95157 16.7401 6.53555 17.484 7.27949C17.9156 7.71114 18.2914 8.1834 18.6139 8.69375C18.6901 8.81563 18.8246 8.88926 18.9668 8.88926H20.4344C20.6096 8.88926 20.7213 8.70645 20.6426 8.55156C18.9871 5.2584 15.6305 3.11797 11.8828 3.07481C6.39592 3.00626 1.8383 7.49785 1.82814 12.9797C1.81799 18.4717 6.26896 22.9277 11.761 22.9277C15.5569 22.9277 18.9694 20.7797 20.6426 17.4484C20.7213 17.2935 20.6071 17.1107 20.4344 17.1107Z" fill="black"/>
</svg>
