<svg width="39" height="39" viewBox="0 0 39 39" fill="none" xmlns="http://www.w3.org/2000/svg">
<path d="M27.2368 17.0579C28.0376 17.0601 28.8308 16.9035 29.5706 16.597C30.3104 16.2905 30.982 15.8403 31.5466 15.2725L37.4118 9.41105C37.8757 8.94717 37.9184 8.1923 37.4766 7.70556C37.3657 7.58328 37.2311 7.4848 37.081 7.4161C36.9308 7.34741 36.7683 7.30993 36.6033 7.30594C36.4382 7.30195 36.2741 7.33154 36.1208 7.3929C35.9676 7.45426 35.8284 7.54612 35.7117 7.66291L30.484 12.8868C30.3085 13.0621 30.0705 13.1606 29.8225 13.1606C29.5744 13.1606 29.3364 13.0621 29.1609 12.8868C28.796 12.5227 28.8158 11.9072 29.1799 11.5431L34.3848 6.33828C34.5014 6.2216 34.5932 6.08245 34.6545 5.92926C34.7158 5.77606 34.7453 5.61202 34.7413 5.44707C34.7373 5.28212 34.6999 5.1197 34.6313 4.96965C34.5627 4.8196 34.4643 4.68504 34.3421 4.57414C34.1215 4.37408 33.834 4.264 33.5362 4.26564C33.1987 4.26588 32.8751 4.40013 32.6366 4.63889L27.4364 9.83838C27.2608 10.0137 27.0229 10.1122 26.7748 10.1122C26.5267 10.1122 26.2888 10.0137 26.1133 9.83838C25.7492 9.47428 25.7682 8.85881 26.1323 8.4947L31.3371 3.2914C31.4538 3.17473 31.5456 3.03558 31.6068 2.88238C31.6681 2.72919 31.6977 2.56515 31.6937 2.4002C31.6897 2.23525 31.6523 2.07282 31.5836 1.92277C31.515 1.77272 31.4166 1.63817 31.2945 1.52726C31.0739 1.32721 30.7863 1.21713 30.4886 1.21877C30.1511 1.21917 29.8276 1.3534 29.589 1.59201L23.7276 7.45344C23.1597 8.01815 22.7094 8.68992 22.403 9.42984C22.0965 10.1698 21.9398 10.9631 21.9421 11.764V12.3909C21.9422 12.5512 21.9107 12.7099 21.8494 12.858C21.7881 13.0061 21.6982 13.1406 21.5848 13.2539L18.8724 15.9672C18.8441 15.9955 18.8105 16.018 18.7735 16.0333C18.7365 16.0486 18.6968 16.0565 18.6568 16.0565C18.6168 16.0565 18.5771 16.0486 18.5401 16.0333C18.5031 16.018 18.4695 15.9955 18.4412 15.9672L5.24217 2.76734C5.01437 2.53928 4.70549 2.41075 4.38314 2.40989C4.06079 2.40904 3.75123 2.53592 3.52221 2.76277C2.36821 3.90611 1.75198 5.52019 1.75198 7.42982C1.74436 10.5833 3.40186 14.2091 6.07778 16.8812L12.5867 23.3901C13.5118 24.3133 14.7653 24.8319 16.0723 24.832C16.4889 24.8322 16.9039 24.779 17.307 24.6736C17.4083 24.6471 17.5124 24.6335 17.6171 24.6332C17.923 24.6333 18.2177 24.7489 18.442 24.957L19.3096 25.7583C19.5334 25.9869 19.6591 26.2938 19.66 26.6137V27.0357C19.6578 27.995 20.0348 28.9163 20.7089 29.5989L27.5681 36.5739L27.575 36.5816C28.3363 37.3428 29.3688 37.7704 30.4454 37.7703C31.522 37.7702 32.5545 37.3425 33.3157 36.5812C34.0769 35.8199 34.5045 34.7873 34.5044 33.7108C34.5044 32.6342 34.0766 31.6017 33.3153 30.8405L23.0336 20.5588C23.0053 20.5305 22.9828 20.4969 22.9675 20.4599C22.9522 20.4229 22.9443 20.3833 22.9443 20.3432C22.9443 20.3032 22.9522 20.2635 22.9675 20.2266C22.9828 20.1896 23.0053 20.156 23.0336 20.1277L25.7461 17.4152C25.8593 17.3019 25.9937 17.2121 26.1417 17.1508C26.2896 17.0895 26.4482 17.0579 26.6084 17.0579H27.2368Z" fill="black"/>
<path d="M16.0722 27.2696C14.1209 27.2656 12.2499 26.4924 10.8651 25.1177L9.80933 24.062C9.69509 23.948 9.54032 23.884 9.37896 23.884C9.2176 23.884 9.06283 23.948 8.94859 24.062L2.47398 30.5031C1.31997 31.6571 0.907887 33.3557 1.47917 35.0193C1.51115 35.113 1.54906 35.2046 1.59267 35.2935C2.36124 36.8672 3.85269 37.7813 5.48429 37.7813C6.0454 37.7827 6.6012 37.6727 7.11951 37.4577C7.63781 37.2428 8.10831 36.9271 8.50374 36.529L17.1386 27.8531C17.1749 27.816 17.2028 27.7714 17.2201 27.7225C17.2375 27.6735 17.244 27.6214 17.2391 27.5697V27.5499C17.2357 27.5024 17.2228 27.4561 17.201 27.4137C17.1792 27.3714 17.1491 27.3339 17.1125 27.3035C17.0758 27.2731 17.0334 27.2504 16.9877 27.2369C16.9421 27.2233 16.8942 27.2192 16.8468 27.2246C16.5896 27.2532 16.331 27.2682 16.0722 27.2696Z" fill="black"/>
</svg>
