<svg width="33" height="31" viewBox="0 0 33 31" fill="none" xmlns="http://www.w3.org/2000/svg">
<path d="M0.25 30.125H29.5V26.875H0.25V30.125ZM29.5 9H26.25V4.125H29.5V9ZM29.5 0.875H3.5V17.125C3.5 18.8489 4.18482 20.5022 5.40381 21.7212C6.62279 22.9402 8.2761 23.625 10 23.625H19.75C21.4739 23.625 23.1272 22.9402 24.3462 21.7212C25.5652 20.5022 26.25 18.8489 26.25 17.125V12.25H29.5C30.362 12.25 31.1886 11.9076 31.7981 11.2981C32.4076 10.6886 32.75 9.862 32.75 9V4.125C32.75 3.26305 32.4076 2.4364 31.7981 1.8269C31.1886 1.21741 30.362 0.875 29.5 0.875Z" fill="black"/>
</svg>
