<svg width="58" height="55" viewBox="0 0 58 55" fill="none" xmlns="http://www.w3.org/2000/svg">
<g clip-path="url(#clip0)">
<path d="M18.125 3.43762C18.6057 3.43762 19.0667 3.6187 19.4066 3.94103C19.7465 4.26336 19.9375 4.70053 19.9375 5.15637V6.87512H27.1875V5.15637C27.1875 4.70053 27.3785 4.26336 27.7184 3.94103C28.0583 3.6187 28.5193 3.43762 29 3.43762C29.4807 3.43762 29.9417 3.6187 30.2816 3.94103C30.6215 4.26336 30.8125 4.70053 30.8125 5.15637V6.87512H38.0625V5.15637C38.0625 4.70053 38.2535 4.26336 38.5934 3.94103C38.9333 3.6187 39.3943 3.43762 39.875 3.43762C40.3557 3.43762 40.8167 3.6187 41.1566 3.94103C41.4965 4.26336 41.6875 4.70053 41.6875 5.15637V6.87512C43.1296 6.87512 44.5127 7.41837 45.5324 8.38535C46.5521 9.35233 47.125 10.6638 47.125 12.0313V20.7488C45.2426 21.0582 43.5075 21.9133 42.1587 23.1963L37.2976 27.8095C36.9907 27.6058 36.6246 27.4976 36.25 27.5001H21.75C21.2693 27.5001 20.8083 27.6812 20.4684 28.0035C20.1285 28.3258 19.9375 28.763 19.9375 29.2188C19.9375 29.6747 20.1285 30.1119 20.4684 30.4342C20.8083 30.7565 21.2693 30.9376 21.75 30.9376H33.9989L26.6147 37.9363C26.1616 38.366 25.7447 38.8267 25.3605 39.3113C25.3041 38.897 25.0905 38.5163 24.7596 38.2404C24.4286 37.9646 24.0031 37.8125 23.5625 37.8126H21.75C21.2693 37.8126 20.8083 37.9937 20.4684 38.316C20.1285 38.6383 19.9375 39.0755 19.9375 39.5313C19.9375 39.9872 20.1285 40.4244 20.4684 40.7467C20.8083 41.069 21.2693 41.2501 21.75 41.2501H23.5625C23.7558 41.2505 23.948 41.2215 24.1316 41.1642C23.6465 42.0551 23.2718 42.9964 23.0151 43.9692L21.9167 48.132C21.6099 49.2716 21.6988 50.4747 22.1705 51.5626H16.3125C14.8704 51.5626 13.4873 51.0193 12.4676 50.0524C11.4479 49.0854 10.875 47.7739 10.875 46.4063V12.0313C10.875 10.6638 11.4479 9.35233 12.4676 8.38535C13.4873 7.41837 14.8704 6.87512 16.3125 6.87512V5.15637C16.3125 4.70053 16.5035 4.26336 16.8434 3.94103C17.1833 3.6187 17.6443 3.43762 18.125 3.43762ZM19.9375 18.9063C19.9375 19.3622 20.1285 19.7994 20.4684 20.1217C20.8083 20.444 21.2693 20.6251 21.75 20.6251H36.25C36.7307 20.6251 37.1917 20.444 37.5316 20.1217C37.8715 19.7994 38.0625 19.3622 38.0625 18.9063C38.0625 18.4505 37.8715 18.0133 37.5316 17.691C37.1917 17.3687 36.7307 17.1876 36.25 17.1876H21.75C21.2693 17.1876 20.8083 17.3687 20.4684 17.691C20.1285 18.0133 19.9375 18.4505 19.9375 18.9063ZM44.7252 25.6267C45.7862 24.6206 47.2251 24.0554 48.7254 24.0554C50.2258 24.0554 51.6647 24.6206 52.7256 25.6267C53.7865 26.6327 54.3825 27.9972 54.3825 29.4199C54.3825 30.8427 53.7865 32.2072 52.7256 33.2132L37.178 47.9532C35.8882 49.1772 34.2718 50.0458 32.5017 50.466L28.1119 51.5076C27.7413 51.5957 27.3529 51.5912 26.9847 51.4946C26.6164 51.398 26.2809 51.2125 26.0107 50.9563C25.7405 50.7001 25.545 50.3819 25.4431 50.0327C25.3412 49.6836 25.3365 49.3153 25.4294 48.9638L26.5314 44.8045C26.9736 43.1235 27.8871 41.5904 29.1776 40.3701L44.7252 25.6267Z" fill="black"/>
<path d="M57.5 0.500122H0.5V54.5001H57.5V0.500122Z" stroke="black"/>
</g>
<defs>
<clipPath id="clip0">
<rect width="58" height="55" fill="white" transform="translate(0 0.00012207)"/>
</clipPath>
</defs>
</svg>
