<svg width="36" height="36" viewBox="0 0 36 36" fill="none" xmlns="http://www.w3.org/2000/svg">
<path d="M32.85 28.13L32.51 27.83C31.5455 26.9706 30.7012 25.985 30 24.9C29.2343 23.4025 28.7753 21.7672 28.65 20.09V15.15C28.6567 12.5156 27.7011 9.96947 25.9628 7.98997C24.2245 6.01046 21.8232 4.73385 19.21 4.39999V3.10999C19.21 2.75593 19.0694 2.41637 18.819 2.16601C18.5687 1.91565 18.2291 1.77499 17.875 1.77499C17.521 1.77499 17.1814 1.91565 16.9311 2.16601C16.6807 2.41637 16.54 2.75593 16.54 3.10999V4.41999C13.9503 4.77792 11.578 6.06225 9.86258 8.0351C8.14713 10.008 7.20478 12.5356 7.21005 15.15V20.09C7.0848 21.7672 6.62583 23.4025 5.86005 24.9C5.17093 25.9823 4.34024 26.9677 3.39005 27.83L3.05005 28.13V30.95H32.85V28.13Z" fill="black"/>
<path d="M15.3199 32C15.4076 32.6339 15.7217 33.2146 16.2042 33.635C16.6867 34.0553 17.305 34.2869 17.9449 34.2869C18.5849 34.2869 19.2032 34.0553 19.6857 33.635C20.1682 33.2146 20.4823 32.6339 20.5699 32H15.3199Z" fill="black"/>
</svg>
