<svg width="36" height="36" viewBox="0 0 36 36" fill="none" xmlns="http://www.w3.org/2000/svg">
<path d="M17.9999 34.28C18.6299 34.2655 19.2344 34.0287 19.7065 33.6114C20.1787 33.1942 20.4881 32.6234 20.5799 32H15.3199C15.4144 32.6403 15.7383 33.2245 16.2312 33.6439C16.7242 34.0633 17.3528 34.2894 17.9999 34.28Z" fill="black"/>
<path d="M32.85 28.13L32.51 27.83C31.5455 26.9706 30.7012 25.985 30 24.9C29.2343 23.4025 28.7753 21.7672 28.65 20.09V15.15C28.646 14.5499 28.5925 13.9513 28.49 13.36C26.7962 13.0118 25.2746 12.089 24.1831 10.7478C23.0915 9.40654 22.4969 7.72929 22.5 5.99999V5.36999C21.456 4.85618 20.3342 4.5183 19.18 4.36999V3.10999C19.18 2.75593 19.0394 2.41637 18.789 2.16601C18.5387 1.91565 18.1991 1.77499 17.845 1.77499C17.491 1.77499 17.1514 1.91565 16.9011 2.16601C16.6507 2.41637 16.51 2.75593 16.51 3.10999V4.41999C13.9258 4.78455 11.5606 6.07174 9.85127 8.04393C8.14192 10.0161 7.20378 12.5401 7.21005 15.15V20.09C7.0848 21.7672 6.62583 23.4025 5.86005 24.9C5.17093 25.9823 4.34024 26.9677 3.39005 27.83L3.05005 28.13V30.95H32.85V28.13Z" fill="black"/>
<path d="M30 11C32.7614 11 35 8.76142 35 6C35 3.23858 32.7614 1 30 1C27.2386 1 25 3.23858 25 6C25 8.76142 27.2386 11 30 11Z" fill="#6AA06B"/>
</svg>
